<svg width="191" height="22" viewBox="0 0 191 22" fill="none" xmlns="http://www.w3.org/2000/svg">
<path d="M11.6205 1.71857V4.74234H3.83148V9.53908H9.8003V12.5135H3.83148V20.4187H0.088089V1.71857H11.6205ZM28.2715 5.57766V20.4187H24.5016V18.5425C24.0026 19.1997 23.3501 19.7243 22.6013 20.0702C21.8128 20.4321 20.9543 20.6152 20.0869 20.6065C18.9275 20.6065 17.9014 20.3651 17.0087 19.8823C16.1112 19.3763 15.3774 18.6232 14.8943 17.7124C14.395 16.7474 14.1454 15.604 14.1454 14.282V5.57325H17.8923V13.7457C17.8923 14.9254 18.186 15.8368 18.7733 16.4802C19.3607 17.1059 20.1636 17.4187 21.182 17.4187C22.2163 17.4187 23.028 17.1059 23.6171 16.4802C24.2045 15.8374 24.4981 14.9259 24.4981 13.7457V5.57325L28.2715 5.57766ZM40.1853 5.36332C41.9514 5.36332 43.379 5.92609 44.4679 7.05162C45.5562 8.15834 46.1004 9.71256 46.1004 11.7143V20.4187H42.357V12.2153C42.357 11.0363 42.0633 10.1342 41.476 9.50909C40.8887 8.86224 40.0858 8.54057 39.0673 8.5441C38.033 8.5441 37.2108 8.86576 36.6005 9.50909C36.0132 10.1336 35.7195 11.0357 35.7195 12.2153V20.4187H31.9726V5.57325H35.7195V7.42562C36.223 6.7798 36.875 6.26536 37.6198 5.92609C38.4224 5.5451 39.3007 5.35119 40.1889 5.35891L40.1853 5.36332ZM48.7003 12.9492C48.7003 11.4485 48.9939 10.1174 49.5813 8.95603C50.188 7.79521 51.0088 6.90225 52.0437 6.27715C53.087 5.64726 54.2851 5.32104 55.5034 5.33509C56.4598 5.33341 57.4037 5.55351 58.2609 5.97813C59.0844 6.34754 59.8022 6.91768 60.3489 7.63644V0.588623H64.1496V20.4187H60.3489V18.2214C59.8638 18.9712 59.1898 19.5797 58.3948 19.9856C57.5573 20.4319 56.585 20.6551 55.4778 20.6551C54.2675 20.6661 53.079 20.3317 52.0516 19.6909C51.0173 19.0476 50.1965 18.1452 49.5892 16.9838C48.9989 15.8083 48.7038 14.4611 48.7038 12.9421L48.7003 12.9492ZM60.3701 13.003C60.3701 12.0921 60.1915 11.315 59.8344 10.6717C59.508 10.042 59.0057 9.52096 58.3887 9.17214C57.8021 8.82655 57.1347 8.64205 56.4541 8.63725C55.7735 8.63244 55.1037 8.80752 54.5122 9.14479C53.9039 9.50447 53.4045 10.0227 53.0674 10.6443C52.7103 11.2877 52.5317 12.056 52.5317 12.9492C52.5317 13.8425 52.71 14.6269 53.0665 15.3026C53.4079 15.9283 53.9057 16.4545 54.5114 16.8295C55.0934 17.18 55.7598 17.3654 56.439 17.3658C57.1231 17.3686 57.7962 17.1932 58.3922 16.8568C59.0009 16.4973 59.5006 15.979 59.8379 15.3573C60.195 14.6945 60.3736 13.9074 60.3736 12.996L60.3701 13.003ZM73.4768 20.6665C72.2639 20.6665 71.1756 20.4522 70.2118 20.0235C69.248 19.5771 68.4806 18.9788 67.9097 18.2284C67.3673 17.5061 67.0509 16.6389 67.0005 15.7366H70.7739C70.8081 16.0175 70.8994 16.2884 71.0421 16.5326C71.1848 16.7768 71.376 16.9892 71.6038 17.1567C72.1036 17.5319 72.7203 17.7195 73.4539 17.7195C74.1675 17.7195 74.7208 17.5766 75.1137 17.2908C75.5248 17.0044 75.7304 16.6381 75.7304 16.1917C75.7304 15.7095 75.4808 15.3523 74.9815 15.12C74.4993 14.8695 73.7232 14.6013 72.653 14.3155C71.7244 14.103 70.8118 13.8257 69.9219 13.4855C69.2204 13.194 68.5969 12.7417 68.1018 12.165C67.6025 11.577 67.3526 10.7831 67.352 9.78342C67.347 8.97922 67.5901 8.19307 68.048 7.53235C68.5302 6.85433 69.2083 6.31861 70.0823 5.9252C70.9744 5.5318 72.0175 5.33509 73.2116 5.33509C74.9783 5.33509 76.3879 5.78172 77.4404 6.67497C78.4947 7.54588 79.075 8.73286 79.1813 10.2359H75.5947C75.5785 9.96311 75.5031 9.6971 75.3738 9.45642C75.2444 9.21574 75.0643 9.00615 74.8459 8.84224C74.4177 8.4847 73.8377 8.30594 73.1059 8.30594C72.4275 8.30594 71.9013 8.43119 71.5271 8.6817C71.3561 8.79563 71.2171 8.95151 71.1233 9.13449C71.0296 9.31746 70.9842 9.52144 70.9915 9.72697C70.9915 10.2268 71.2414 10.6108 71.7412 10.879C72.241 11.1289 73.0172 11.3879 74.0697 11.6561C74.9711 11.8706 75.8563 12.1483 76.7189 12.487C77.4195 12.776 78.0364 13.2367 78.5126 13.8269C79.0295 14.4149 79.297 15.2009 79.3152 16.1847C79.3254 17.0103 79.0724 17.8178 78.5928 18.4895C78.1282 19.1676 77.4501 19.7033 76.5585 20.0967C75.6846 20.4725 74.6585 20.66 73.4803 20.6595L73.4768 20.6665Z" fill="#0E052B"/>
<path d="M11.6205 1.71815H11.7086V1.62994H11.6205V1.71815ZM11.6205 4.74633V4.83454H11.7086V4.74633H11.6205ZM3.8315 4.74633V4.65812H3.7434V4.74633H3.8315ZM3.8315 9.54308H3.7434V9.63129H3.8315V9.54308ZM9.80031 9.54308H9.88841V9.45487H9.80031V9.54308ZM9.80031 12.5175V12.6057H9.88841V12.5175H9.80031ZM3.8315 12.5175V12.4292H3.7434V12.5175H3.8315ZM3.8315 20.4227V20.5109H3.9196V20.4227H3.8315ZM0.0881006 20.4182H0V20.5064H0.0881006V20.4182ZM0.0881006 1.71815V1.62994H0V1.71815H0.0881006ZM11.5324 1.71815V4.74192H11.7086V1.71815H11.5324ZM11.6205 4.65812H3.8315V4.83454H11.6205V4.65812ZM3.7434 4.74633V9.54308H3.9196V4.74192L3.7434 4.74633ZM3.8315 9.63129H9.80031V9.45487H3.8315V9.63129ZM9.71221 9.54308V12.5175H9.88841V9.53867L9.71221 9.54308ZM9.80031 12.4292H3.8315V12.6057H9.80031V12.4292ZM3.7434 12.5175V20.4182H3.9196V12.513L3.7434 12.5175ZM3.8315 20.3344H0.0881006V20.5109H3.8315V20.3344ZM0.176201 20.4182V1.71815H0V20.4182H0.176201ZM0.0881006 1.80636H11.6205V1.62994H0.0881006V1.80636ZM28.2803 5.57725H28.3684V5.48904H28.2803V5.57725ZM28.2803 20.4227V20.5109H28.3684V20.4227H28.2803ZM24.507 20.4227H24.4189V20.5109H24.507V20.4227ZM24.507 18.5465H24.5951V18.2818L24.4365 18.4935L24.507 18.5465ZM14.1437 5.57284V5.48463H14.0556V5.57284H14.1437ZM17.8906 5.57284H17.9787V5.48463H17.8906V5.57284ZM24.4981 5.57284V5.48463H24.41V5.57284H24.4981ZM28.1834 5.57284V20.4182H28.3596V5.57284H28.1834ZM28.2715 20.33H24.5017V20.5064H28.275L28.2715 20.33ZM24.5862 20.4182V18.5421H24.41V20.4182H24.5862ZM24.4277 18.4891C23.9371 19.1345 23.2957 19.6494 22.5599 19.9887L22.6419 20.1536C23.4034 19.8015 24.0671 19.2679 24.5748 18.5994L24.4277 18.4891ZM22.5608 19.9887C21.7835 20.346 20.9369 20.5267 20.0817 20.5179V20.6943C20.9644 20.7052 21.8387 20.5205 22.6419 20.1536L22.5608 19.9887ZM20.0817 20.5179C18.9346 20.5179 17.9226 20.28 17.0457 19.8043L16.9576 19.9596C17.8692 20.45 18.9123 20.6949 20.0869 20.6943L20.0817 20.5179ZM17.0466 19.8052C16.1634 19.3073 15.4415 18.5661 14.9665 17.6697L14.8124 17.7579C15.3032 18.6836 16.0489 19.449 16.9611 19.9631L17.0466 19.8052ZM14.9674 17.6714C14.4758 16.7212 14.2294 15.5912 14.2283 14.2816H14.052C14.052 15.6141 14.3052 16.7711 14.8115 17.7526L14.9674 17.6714ZM14.2283 14.2816V5.57284H14.052V14.2816H14.2283ZM14.1402 5.66105H17.8871V5.48463H14.1437L14.1402 5.66105ZM17.799 5.57284V13.7453H17.9752V5.57284H17.799ZM17.799 13.7453C17.799 14.9388 18.0968 15.8746 18.7055 16.5389L18.835 16.4198C18.2659 15.8023 17.9752 14.9105 17.9752 13.7453H17.799ZM18.7099 16.5371C19.3178 17.1828 20.146 17.503 21.1829 17.503V17.3266C20.1847 17.3266 19.4068 17.0205 18.8377 16.4162L18.7099 16.5371ZM21.1829 17.5074C22.2401 17.5074 23.0736 17.1881 23.6823 16.5415L23.5537 16.4207C22.9855 17.0222 22.2014 17.331 21.1829 17.331V17.5074ZM23.6832 16.5371C24.2911 15.8729 24.5898 14.937 24.5898 13.7435H24.4136C24.4136 14.9088 24.1228 15.7961 23.5537 16.418L23.6832 16.5371ZM24.5898 13.7435V5.57284H24.4136V13.7453L24.5898 13.7435ZM24.5017 5.65928H28.275V5.48287H24.5017V5.65928ZM46.1039 20.4182V20.5064H46.192V20.4182H46.1039ZM42.357 20.4182H42.2689V20.5064H42.357V20.4182ZM35.7195 20.4182V20.5064H35.8076V20.4182H35.7195ZM31.9726 20.4182H31.8845V20.5064H31.9726V20.4182ZM31.9726 5.57284V5.48463H31.8845V5.57284H31.9726ZM35.7195 5.57284H35.8076V5.48463H35.7195V5.57284ZM35.7195 7.42521H35.6314V7.68189L35.7891 7.47901L35.7195 7.42521ZM40.1889 5.45111C41.935 5.45111 43.3414 6.00477 44.408 7.11207L44.5349 6.98946C43.4271 5.84452 41.9785 5.27293 40.1889 5.2747V5.45111ZM44.4089 7.11295C45.4767 8.19967 46.0158 9.7292 46.0158 11.7139H46.192C46.192 9.69656 45.6432 8.11764 44.534 6.98858L44.4089 7.11295ZM46.0158 11.7139V20.4182H46.192V11.7095L46.0158 11.7139ZM46.1039 20.3344H42.357V20.5109H46.1039V20.3344ZM42.4451 20.4227V12.2149H42.2689V20.4182L42.4451 20.4227ZM42.4451 12.2193C42.4451 11.0259 42.1473 10.1023 41.5377 9.45223L41.4073 9.56866C41.9755 10.172 42.2663 11.0497 42.2663 12.2149L42.4451 12.2193ZM41.5386 9.45311C40.9307 8.7889 40.1025 8.45989 39.0647 8.45989V8.6363C40.062 8.63542 40.839 8.95121 41.4073 9.56866L41.5386 9.45311ZM39.0647 8.459C38.0075 8.459 37.1644 8.78714 36.5389 9.45134L36.6666 9.57219C37.2542 8.94944 38.0498 8.63542 39.0647 8.63542V8.459ZM36.5389 9.45134C35.9292 10.0979 35.6314 11.025 35.6314 12.2184H35.8076C35.8076 11.0532 36.0984 10.1755 36.6666 9.57219L36.5389 9.45134ZM35.6314 12.2149V20.4182H35.8076V12.2149H35.6314ZM35.7195 20.33H31.9726V20.5064H35.7195V20.33ZM32.0607 20.4182V5.57284H31.8845V20.4182H32.0607ZM31.9726 5.66105H35.7195V5.48463H31.9726V5.66105ZM35.6314 5.57284V7.42521H35.8076V5.57284H35.6314ZM35.7891 7.47549C36.284 6.84049 36.9248 6.33454 37.6568 6.00065L37.5828 5.84099C36.8254 6.18515 36.1623 6.70746 35.6499 7.36346L35.7891 7.47549ZM37.6577 6.00065C38.4488 5.62703 39.3142 5.43764 40.1889 5.4467V5.27029C39.288 5.26129 38.3968 5.4564 37.582 5.84099L37.6577 6.00065ZM60.3489 7.63602L60.2785 7.68895L60.437 7.90241V7.63779L60.3489 7.63602ZM60.3489 0.588208V0.5H60.2608V0.588208H60.3489ZM64.1496 0.588208H64.2377V0.5H64.1496V0.588208ZM64.1496 20.4182V20.5064H64.2377V20.4182H64.1496ZM60.3489 20.4182H60.2608V20.5064H60.3489V20.4182ZM60.3489 18.221H60.437V17.9175L60.2749 18.1733L60.3489 18.221ZM48.7919 12.9417C48.7919 11.4528 49.0832 10.1353 49.6658 8.98913L49.5126 8.90886C48.917 10.085 48.6195 11.4293 48.6201 12.9417H48.7919ZM49.665 8.99002C50.2646 7.84155 51.0746 6.95947 52.0948 6.34378L52.0067 6.19294C50.9548 6.82804 50.1234 7.73305 49.5126 8.90798L49.665 8.99002ZM52.0948 6.34378C53.1236 5.72612 54.3039 5.40726 55.5034 5.42289V5.24647C54.272 5.23249 53.061 5.56172 52.0058 6.19735L52.0948 6.34378ZM55.5034 5.42289C56.4464 5.42133 57.377 5.6384 58.2222 6.0571L58.2997 5.89921C57.4305 5.46818 56.4734 5.24476 55.5034 5.24647V5.42289ZM58.2231 6.05798C59.0339 6.42178 59.7404 6.98384 60.2776 7.69248L60.4185 7.58663C59.8637 6.85368 59.1339 6.27196 58.2962 5.8948L58.2231 6.05798ZM60.437 7.63602V0.588208H60.2608V7.63602H60.437ZM60.3489 0.676416H64.1496V0.5H60.3489V0.676416ZM64.0615 0.588208V20.4182H64.2377V0.588208H64.0615ZM64.1496 20.33H60.3489V20.5064H64.1496V20.33ZM60.437 20.4182V18.221H60.2608V20.4182H60.437ZM60.2749 18.1733C59.7985 18.9122 59.1357 19.5119 58.3534 19.9119L58.4363 20.0672C59.2455 19.6531 59.9312 19.0323 60.4238 18.2677L60.2749 18.1733ZM58.3534 19.9119C57.5312 20.35 56.5726 20.5697 55.4778 20.5708V20.7473C56.5938 20.7473 57.5799 20.5206 58.4363 20.0672L58.3534 19.9119ZM55.4778 20.5708C54.2835 20.5838 53.1102 20.2554 52.0957 19.6244L52.0032 19.7743C53.0443 20.4237 54.2486 20.7627 55.4752 20.7517L55.4778 20.5708ZM52.0957 19.6244C51.0755 18.9904 50.2652 18.0995 49.665 16.9517L49.509 17.0337C50.1222 18.2098 50.9536 19.1233 52.0032 19.7743L52.0957 19.6244ZM49.6658 16.9534C49.0844 15.7885 48.7931 14.4527 48.7919 12.9461H48.6157C48.6157 14.4751 48.9132 15.837 49.5081 17.0319L49.6658 16.9534ZM60.4617 13C60.4617 12.0773 60.2793 11.2858 59.9146 10.6254L59.7613 10.7136C60.109 11.3405 60.2837 12.1035 60.2855 13.0026L60.4617 13ZM59.9155 10.6263C59.5808 9.98182 59.0667 9.44838 58.4354 9.09057L58.3473 9.24494C58.9487 9.5867 59.4383 10.0956 59.7569 10.7101L59.9155 10.6263ZM58.4371 9.08705C57.8331 8.72634 57.1424 8.53699 56.439 8.53927V8.71569C57.1111 8.7135 57.7711 8.89464 58.3482 9.23965L58.4371 9.08705ZM56.439 8.53927C55.7473 8.53424 55.0667 8.71388 54.4673 9.0597L54.5554 9.21318C55.1278 8.8822 55.7781 8.71044 56.439 8.71569V8.53927ZM54.4673 9.0597C53.8453 9.42775 53.3347 9.9579 52.9899 10.5936L53.1432 10.6818C53.4714 10.0737 53.9587 9.56632 54.5528 9.21407L54.4673 9.0597ZM52.989 10.5945C52.6243 11.2531 52.4422 12.0355 52.4428 12.9417H52.619C52.619 12.0597 52.7952 11.3058 53.1476 10.6801L52.989 10.5945ZM52.4428 12.9417C52.4428 13.8467 52.6246 14.6465 52.9881 15.341L53.1441 15.259C52.7952 14.5945 52.619 13.822 52.6155 12.9417H52.4428ZM52.9899 15.3436C53.3386 15.9827 53.8471 16.52 54.4656 16.9032L54.5537 16.7523C53.9622 16.3829 53.4765 15.8663 53.1441 15.2528L52.9899 15.3436ZM54.4673 16.9032C55.0626 17.2618 55.7442 17.4515 56.439 17.4518V17.2754C55.7756 17.2749 55.1248 17.0938 54.5563 16.7514L54.4673 16.9032ZM56.439 17.4518C57.1383 17.4548 57.8263 17.2754 58.4354 16.9314L58.3473 16.777C57.7644 17.1066 57.1058 17.2783 56.4364 17.2754L56.439 17.4518ZM58.4371 16.9305C59.0596 16.5629 59.5703 16.0327 59.9146 15.3966L59.7613 15.3084C59.4329 15.9162 58.9457 16.4233 58.3517 16.7753L58.4371 16.9305ZM59.9155 15.3957C60.2802 14.7188 60.4623 13.9188 60.4617 12.9955H60.2855C60.2855 13.8953 60.1093 14.6674 59.7569 15.3119L59.9155 15.3957ZM67.0049 15.7291V15.6409H66.9107L66.9168 15.7291H67.0049ZM70.7783 15.7291L70.8664 15.7176L70.8567 15.6409H70.7792L70.7783 15.7291ZM79.1796 10.2355V10.3237H79.2747L79.2677 10.2293L79.1796 10.2355ZM75.593 10.2355L75.5049 10.2435L75.5119 10.3237H75.5921L75.593 10.2355ZM73.4812 20.5708C72.2789 20.5708 71.2026 20.3591 70.2523 19.9357L70.181 20.0972C71.1571 20.5311 72.2572 20.7478 73.4812 20.7473V20.5708ZM70.2532 19.9366C69.3005 19.4932 68.544 18.9034 67.9837 18.1672L67.8437 18.2748C68.4239 19.0393 69.2022 19.6464 70.1783 20.0963L70.2532 19.9366ZM67.9855 18.1725C67.4526 17.4642 67.1417 16.6136 67.0921 15.7282L66.9159 15.7379C66.9673 16.6576 67.2898 17.5413 67.8428 18.2774L67.9855 18.1725ZM67.0049 15.8217H70.7783V15.6453H67.0041L67.0049 15.8217ZM70.6911 15.7441C70.7266 16.0365 70.8214 16.3186 70.9697 16.5729C71.118 16.8273 71.3167 17.0486 71.5536 17.2233L71.6619 17.084C71.444 16.9231 71.2613 16.7193 71.1249 16.4851C70.9885 16.2508 70.9015 15.9912 70.869 15.722L70.6911 15.7441ZM71.5553 17.2242C72.0725 17.6123 72.7077 17.8046 73.4548 17.8046V17.6282C72.7385 17.6282 72.143 17.4447 71.661 17.0831L71.5553 17.2242ZM73.4548 17.8046C74.179 17.8046 74.7525 17.66 75.1657 17.3583L75.0617 17.2119C74.6899 17.4827 74.1578 17.6238 73.4539 17.6238L73.4548 17.8046ZM75.1648 17.3636C75.5956 17.0637 75.8176 16.6712 75.8176 16.1922H75.6414C75.6414 16.6059 75.4538 16.9464 75.0644 17.2181L75.1648 17.3636ZM75.8168 16.1843C75.8218 15.9419 75.7509 15.7041 75.6141 15.5042C75.4603 15.2967 75.2542 15.1338 75.0168 15.0323L74.9428 15.1928C75.1521 15.2811 75.3345 15.4232 75.4714 15.6047C75.5874 15.7753 75.6472 15.978 75.6423 16.1843H75.8168ZM75.0238 15.0376C74.5331 14.7826 73.749 14.5083 72.6768 14.2269L72.6319 14.3972C73.7015 14.683 74.4697 14.9485 74.9428 15.191L75.0238 15.0376ZM72.6751 14.226C71.7492 14.0129 70.8393 13.7356 69.9519 13.396L69.8867 13.5592C70.7801 13.9011 71.6962 14.1802 72.6284 14.3945L72.6751 14.226ZM69.9519 13.396C69.2637 13.1117 68.6515 12.67 68.1643 12.1064L68.0322 12.2228C68.5363 12.8067 69.1699 13.2643 69.8823 13.5592L69.9519 13.396ZM68.1652 12.1073C67.6833 11.5383 67.4366 10.7656 67.4366 9.77948H67.2604C67.2604 10.7948 67.5142 11.6124 68.0313 12.222L68.1652 12.1073ZM67.4366 9.77948C67.4306 8.99162 67.6685 8.22125 68.1176 7.57428L67.9723 7.4746C67.5038 8.1496 67.2551 8.9531 67.2604 9.77507L67.4366 9.77948ZM68.1168 7.57957C68.5866 6.91507 69.2527 6.38906 70.1149 6.00153L70.0426 5.84011C69.1599 6.23881 68.4709 6.78452 67.9758 7.47725L68.1168 7.57957ZM70.1149 6.00153C70.9953 5.61577 72.0275 5.42289 73.2116 5.42289V5.24647C72.0064 5.24647 70.9507 5.44553 70.0444 5.84364L70.1149 6.00153ZM73.2116 5.42289C74.9631 5.42289 76.3506 5.86393 77.3832 6.7416L77.4968 6.60752C76.4264 5.69369 74.9948 5.24647 73.2116 5.24647V5.42289ZM77.3841 6.74601C78.416 7.60456 78.9854 8.77214 79.0923 10.2487L79.2685 10.2364C79.1599 8.71393 78.5696 7.50518 77.4977 6.61017L77.3841 6.74601ZM79.1796 10.1544H75.5947V10.3308H79.1813L79.1796 10.1544ZM75.6811 10.2346C75.6642 9.94905 75.5855 9.67056 75.4504 9.41848C75.3153 9.1664 75.1271 8.94676 74.8988 8.77479L74.7921 8.91592C75.0009 9.07236 75.173 9.2725 75.2966 9.50239C75.4201 9.73227 75.4921 9.98638 75.5075 10.247L75.6811 10.2346ZM74.9023 8.77479C74.4538 8.40079 73.8521 8.2182 73.1059 8.2182V8.39461C73.8239 8.39461 74.3816 8.57103 74.7895 8.91063L74.9023 8.77479ZM73.1059 8.21731C72.4187 8.21731 71.8725 8.34433 71.4778 8.60719L71.5756 8.7545C71.928 8.5181 72.4372 8.39373 73.1059 8.39373V8.21731ZM71.476 8.60896C71.2936 8.73117 71.1453 8.89792 71.0451 9.09346C70.9449 9.28901 70.8961 9.5069 70.9034 9.72655H71.0796C71.0726 9.53568 71.1147 9.3462 71.2019 9.1763C71.289 9.0064 71.4183 8.86176 71.5774 8.75627L71.476 8.60896ZM70.9034 9.72655C70.8991 9.97827 70.9693 10.2256 71.1051 10.4375C71.2563 10.658 71.4609 10.8365 71.6998 10.9562L71.7826 10.8009C71.5705 10.6949 71.3887 10.5368 71.254 10.3414C71.1351 10.1578 71.0737 9.94272 71.0778 9.72391L70.9034 9.72655ZM71.7016 10.9571C72.2099 11.212 72.994 11.4722 74.0477 11.7412L74.0909 11.5701C73.0398 11.3055 72.2716 11.0409 71.7809 10.7992L71.7016 10.9571ZM74.0477 11.7412C74.9452 11.9546 75.8266 12.2308 76.6854 12.5677L76.7524 12.4045C75.8864 12.0644 74.9976 11.7855 74.0926 11.5701L74.0477 11.7412ZM76.6854 12.5677C77.3734 12.8513 77.9792 13.3032 78.4474 13.882L78.5831 13.77C78.0976 13.1688 77.469 12.6993 76.755 12.4045L76.6854 12.5677ZM78.4474 13.8847C78.9479 14.4545 79.2104 15.2184 79.228 16.186H79.4042C79.3866 15.1884 79.1135 14.3804 78.5796 13.7718L78.4474 13.8847ZM79.2271 16.1843C79.2377 16.9914 78.9908 17.781 78.5223 18.438L78.6668 18.5403C79.1562 17.8533 79.4142 17.028 79.4033 16.1843H79.2271ZM78.5223 18.4389C78.0695 19.1022 77.4061 19.6279 76.526 20.016L76.5964 20.1774C77.5009 19.7787 78.1917 19.2324 78.6686 18.5385L78.5223 18.4389ZM76.5242 20.0151C75.6626 20.3844 74.648 20.5697 73.4803 20.5708V20.7473C74.6679 20.7473 75.7057 20.5573 76.5938 20.1774L76.5242 20.0151Z" fill="#0E052B"/>
<path d="M122.92 5.35897C124.687 5.35897 126.114 5.92174 127.202 7.04727C128.291 8.15399 128.836 9.70821 128.836 11.7099V20.4187H125.088V12.2154C125.088 11.0363 124.794 10.1343 124.207 9.50915C123.619 8.8623 122.816 8.54063 121.798 8.54416C120.763 8.54416 119.941 8.86582 119.331 9.50915C118.744 10.1337 118.45 11.0357 118.45 12.2154V20.4187H114.707V5.57332H118.454V7.42568C118.957 6.77986 119.609 6.26542 120.354 5.92615C121.156 5.5457 122.033 5.3518 122.92 5.35897ZM140.615 5.35897C142.382 5.35897 143.809 5.92174 144.897 7.04727C145.986 8.15399 146.531 9.70821 146.531 11.7099V20.4187H142.783V12.2154C142.783 11.0363 142.489 10.1343 141.902 9.50915C141.314 8.8623 140.512 8.54063 139.493 8.54416C138.458 8.54416 137.636 8.86582 137.026 9.50915C136.439 10.1337 136.145 11.0357 136.145 12.2154V20.4187H132.398V5.57332H136.145V7.42568C136.649 6.77986 137.301 6.26542 138.046 5.92615C138.848 5.54518 139.727 5.35127 140.615 5.35897ZM163.874 12.6741C163.878 13.1587 163.842 13.6428 163.767 14.1215H152.93C153.02 15.193 153.395 16.0324 154.054 16.6399C154.714 17.2473 155.526 17.5511 156.49 17.5511C157.882 17.5511 158.873 16.9527 159.461 15.756H163.502C163.085 17.1705 162.221 18.4114 161.04 19.2932C159.827 20.2041 158.337 20.6595 156.57 20.6595C155.143 20.6595 153.858 20.347 152.716 19.7219C151.598 19.0849 150.681 18.1475 150.067 17.0157C149.443 15.8542 149.13 14.5144 149.13 12.996C149.13 11.4594 149.442 10.1107 150.067 8.94992C150.661 7.81927 151.573 6.88764 152.69 6.27016C153.814 5.64506 155.106 5.33221 156.566 5.33162C157.976 5.33162 159.234 5.63535 160.34 6.24281C161.445 6.83113 162.349 7.73631 162.936 8.8423C163.563 9.95019 163.877 11.2274 163.878 12.6741H163.874ZM159.998 11.6023C159.979 10.6373 159.631 9.86934 158.954 9.29834C158.275 8.71028 157.445 8.41626 156.464 8.41626C155.536 8.41626 154.751 8.70205 154.109 9.27364C153.485 9.82758 153.101 10.6047 152.958 11.605L159.998 11.6023ZM165.649 12.996C165.649 11.4594 165.962 10.1196 166.587 8.97638C167.176 7.85122 168.078 6.92062 169.183 6.29662C170.288 5.65564 171.555 5.33515 172.982 5.33515C174.82 5.33515 176.336 5.79972 177.532 6.72884C178.746 7.63973 179.558 8.9261 179.968 10.5879H175.926C175.737 9.97994 175.351 9.45232 174.829 9.0884C174.33 8.71381 173.705 8.52622 172.955 8.52564C171.885 8.52564 171.037 8.91875 170.413 9.70498C169.789 10.473 169.476 11.5718 169.476 13.0013C169.476 14.4126 169.789 15.5111 170.413 16.2968C171.038 17.0648 171.885 17.449 172.955 17.4496C174.473 17.4496 175.463 16.7707 175.926 15.4129H179.968C179.557 17.0206 178.745 18.2979 177.532 19.2447C176.319 20.1914 174.803 20.6648 172.982 20.6648C171.555 20.6648 170.288 20.3523 169.182 19.7272C168.085 19.0931 167.185 18.1651 166.586 17.0474C165.961 15.8842 165.649 14.5338 165.648 12.996H165.649ZM187.076 8.65442V15.8363C187.076 16.3362 187.194 16.7025 187.429 16.9354C187.679 17.1497 188.088 17.2565 188.662 17.2565H190.401V20.4187H188.046C184.888 20.4187 183.309 18.8824 183.309 15.8098V8.65442H181.547V5.57332H183.309V1.9021H187.082V5.57332H190.401V8.65442H187.076Z" fill="#0E052B"/>
<path fill-rule="evenodd" clip-rule="evenodd" d="M88.0526 5.4361C89.6596 4.93589 91.3814 4.94243 92.9846 5.45482L94.2838 5.87007L92.6242 9.35045L91.6353 9.03311C90.779 8.75832 90.0514 8.76241 89.1719 9.03622L89.1718 9.03625C88.4124 9.27261 87.7303 9.70884 87.1968 10.2993C86.6634 10.8898 86.2981 11.613 86.1392 12.3931C85.9803 13.1733 86.0335 13.9819 86.2934 14.7344C86.5533 15.4869 87.0103 16.1557 87.6166 16.6709C88.2229 17.1862 88.9563 17.5289 89.7401 17.6634C90.5239 17.7978 91.3294 17.719 92.0725 17.4353C92.8155 17.1515 93.4688 16.6731 93.964 16.0501C94.4593 15.4271 94.7783 14.6824 94.8879 13.8938L95.0517 12.7142L98.5847 13.2895L98.6174 14.4131C98.3858 16.082 97.6473 17.6393 96.5021 18.8739C95.3568 20.1085 93.8601 20.9607 92.2149 21.315C90.5696 21.6694 88.8554 21.5088 87.3044 20.8549C85.7533 20.2011 84.4406 19.0856 83.544 17.6597C82.6474 16.2338 82.2104 14.5664 82.292 12.8835C82.3737 11.2005 82.9702 9.5834 84.0006 8.25124C85.031 6.91908 86.4456 5.93631 88.0526 5.4361Z" fill="#0E052B"/>
<path fill-rule="evenodd" clip-rule="evenodd" d="M88.0526 5.4361C89.6596 4.93589 91.3814 4.94243 92.9846 5.45482L94.2838 5.87007L92.6242 9.35045L91.6353 9.03311C90.779 8.75832 90.0514 8.76241 89.1719 9.03622L89.1718 9.03625C88.4124 9.27261 87.7303 9.70884 87.1968 10.2993C86.6634 10.8898 86.2981 11.613 86.1392 12.3931C85.9803 13.1733 86.0335 13.9819 86.2934 14.7344C86.5533 15.4869 87.0103 16.1557 87.6166 16.6709C88.2229 17.1862 88.9563 17.5289 89.7401 17.6634C90.5239 17.7978 91.3294 17.719 92.0725 17.4353C92.8155 17.1515 93.4688 16.6731 93.964 16.0501C94.4593 15.4271 94.7783 14.6824 94.8879 13.8938L95.0517 12.7142L98.4966 13.2895L98.6174 14.4131C98.3858 16.082 97.6473 17.6393 96.5021 18.8739C95.3568 20.1085 93.8601 20.9607 92.2149 21.315C90.5696 21.6694 88.8554 21.5088 87.3044 20.8549C85.7533 20.2011 84.4406 19.0856 83.544 17.6597C82.6474 16.2338 82.2104 14.5664 82.292 12.8835C82.3737 11.2005 82.9702 9.5834 84.0006 8.25124C85.031 6.91908 86.4456 5.93631 88.0526 5.4361Z" fill="url(#paint0_linear_1_21)"/>
<path d="M90.4793 21.4998C89.2948 21.499 88.1246 21.2415 87.0489 20.745C85.9732 20.2485 85.0176 19.5248 84.2477 18.6236C83.4779 17.7223 82.9119 16.6649 82.5888 15.524C82.2657 14.383 82.1931 13.1856 82.376 12.0139C82.5588 10.8422 82.9928 9.724 83.6481 8.73611C84.3034 7.74822 85.1645 6.91405 86.1723 6.29089C87.18 5.66773 88.3106 5.27034 89.4862 5.12602C90.6619 4.9817 91.8548 5.09387 92.9831 5.45482L94.2826 5.87116L92.621 9.3492L91.6334 9.03342C90.785 8.76174 90.0476 8.76262 89.1666 9.03342C88.4073 9.27005 87.7255 9.70649 87.1922 10.2971C86.659 10.8878 86.294 11.611 86.1353 12.3911C85.9767 13.1713 86.0302 13.9798 86.2902 14.7321C86.5503 15.4845 87.0074 16.1532 87.6138 16.6682C88.2201 17.1833 88.9535 17.5259 89.7373 17.6602C90.5211 17.7945 91.3266 17.7156 92.0695 17.4317C92.8124 17.1478 93.4656 16.6694 93.9607 16.0464C94.4559 15.4234 94.7749 14.6787 94.8843 13.8901L95.0482 12.7117L98.4964 13.2895L98.6136 14.4097C98.382 16.0785 97.6436 17.6357 96.4984 18.8702C95.3531 20.1047 93.8565 20.9568 92.2113 21.3111C91.6423 21.435 91.0617 21.4983 90.4793 21.4998Z" fill="url(#paint1_linear_1_21)"/>
<path fill-rule="evenodd" clip-rule="evenodd" d="M95.1842 11.5195C95.9729 7.0771 100.19 4.08952 104.627 4.87796C109.064 5.66654 111.994 9.92589 111.208 14.3684L111.207 14.3694C110.419 18.8117 106.202 21.7993 101.765 21.0109C97.3288 20.2225 94.3953 15.9625 95.1842 11.5195ZM104.003 8.39539C101.53 7.95598 99.1454 9.62048 98.6972 12.1448C98.2491 14.6684 99.9163 17.0541 102.389 17.4935C104.861 17.9328 107.246 16.2688 107.694 13.745M104.003 8.39539C106.475 8.83465 108.141 11.219 107.694 13.7448L104.003 8.39539Z" fill="#0E052B"/>
<path fill-rule="evenodd" clip-rule="evenodd" d="M95.1842 11.5195C95.9729 7.0771 100.19 4.08952 104.627 4.87796C109.064 5.66654 111.994 9.92589 111.208 14.3684L111.207 14.3694C110.419 18.8117 106.202 21.7993 101.765 21.0109C97.3288 20.2225 94.3953 15.9625 95.1842 11.5195ZM104.003 8.39539C101.53 7.95598 99.1454 9.62048 98.6972 12.1448C98.2491 14.6684 99.9163 17.0541 102.389 17.4935C104.861 17.9328 107.246 16.2688 107.694 13.745M104.003 8.39539C106.475 8.83465 108.141 11.219 107.694 13.7448L104.003 8.39539Z" fill="url(#paint2_linear_1_21)"/>
<path fill-rule="evenodd" clip-rule="evenodd" d="M95.1842 11.5195C95.9729 7.0771 100.19 4.08952 104.627 4.87796C109.064 5.66654 111.994 9.92589 111.208 14.3684L111.207 14.3694C110.419 18.8117 106.202 21.7993 101.765 21.0109C97.3288 20.2225 94.3953 15.9625 95.1842 11.5195ZM104.003 8.39539C101.53 7.95598 99.1454 9.62048 98.6972 12.1448C98.2491 14.6684 99.9163 17.0541 102.389 17.4935C104.861 17.9328 107.246 16.2688 107.694 13.745M104.003 8.39539C106.475 8.83465 108.141 11.219 107.694 13.7448L104.003 8.39539Z" fill="url(#paint3_linear_1_21)"/>
<path d="M103.183 21.1367C102.707 21.1367 102.233 21.0948 101.765 21.0115C97.3472 20.2255 94.395 15.9686 95.1835 11.5203C95.972 7.07196 100.205 4.09318 104.626 4.87823C109.047 5.66328 111.996 9.92108 111.207 14.3694C110.873 16.2598 109.887 17.9727 108.42 19.2094C106.954 20.4462 105.1 21.1283 103.183 21.1367ZM103.209 8.3254C102.13 8.33211 101.086 8.71814 100.262 9.41614C99.4371 10.1141 98.8833 11.0798 98.6969 12.1448C98.2564 14.6534 99.9083 17.0527 102.388 17.4937C104.868 17.9348 107.249 16.2526 107.694 13.744C108.139 11.2354 106.482 8.83612 104.002 8.39508C103.741 8.34889 103.475 8.32558 103.209 8.3254Z" fill="url(#paint4_linear_1_21)"/>
<path d="M103.165 15.1252C103.601 15.1252 104.027 14.9959 104.389 14.7536C104.751 14.5113 105.034 14.1669 105.2 13.7639C105.367 13.361 105.411 12.9176 105.326 12.4898C105.241 12.0621 105.031 11.6691 104.723 11.3607C104.415 11.0523 104.022 10.8423 103.595 10.7572C103.168 10.6721 102.725 10.7158 102.323 10.8827C101.92 11.0496 101.576 11.3323 101.334 11.6949C101.092 12.0575 100.963 12.4839 100.963 12.92C100.963 13.5049 101.195 14.0658 101.608 14.4794C102.021 14.8929 102.581 15.1252 103.165 15.1252Z" fill="#D9D9D9"/>
<path d="M103.165 15.1252C103.601 15.1252 104.027 14.9959 104.389 14.7536C104.751 14.5113 105.034 14.1669 105.2 13.7639C105.367 13.361 105.411 12.9176 105.326 12.4898C105.241 12.0621 105.031 11.6691 104.723 11.3607C104.415 11.0523 104.022 10.8423 103.595 10.7572C103.168 10.6721 102.725 10.7158 102.323 10.8827C101.92 11.0496 101.576 11.3323 101.334 11.6949C101.092 12.0575 100.963 12.4839 100.963 12.92C100.963 13.5049 101.195 14.0658 101.608 14.4794C102.021 14.8929 102.581 15.1252 103.165 15.1252Z" fill="url(#paint5_linear_1_21)"/>
<defs>
<linearGradient id="paint0_linear_1_21" x1="84.8207" y1="9.55126" x2="94.4879" y2="15.8297" gradientUnits="userSpaceOnUse">
<stop stop-color="#42E3BC"/>
<stop offset="1" stop-color="#17B49E"/>
</linearGradient>
<linearGradient id="paint1_linear_1_21" x1="93.5672" y1="19.0212" x2="86.191" y2="7.54646" gradientUnits="userSpaceOnUse">
<stop stop-color="#0D8456"/>
<stop offset="1" stop-color="#01D264"/>
</linearGradient>
<linearGradient id="paint2_linear_1_21" x1="97.6402" y1="10.3167" x2="107.082" y2="14.7711" gradientUnits="userSpaceOnUse">
<stop stop-color="#42E3BC"/>
<stop offset="1" stop-color="#17B49E"/>
</linearGradient>
<linearGradient id="paint3_linear_1_21" x1="108.665" y1="17.4192" x2="99.3226" y2="9.79416" gradientUnits="userSpaceOnUse">
<stop stop-color="#4D61F4"/>
<stop offset="1" stop-color="#1EB9FF"/>
</linearGradient>
<linearGradient id="paint4_linear_1_21" x1="97.6406" y1="10.318" x2="107.081" y2="14.7716" gradientUnits="userSpaceOnUse">
<stop stop-color="#08ECB3"/>
<stop offset="1" stop-color="#2EEE88"/>
</linearGradient>
<linearGradient id="paint5_linear_1_21" x1="103.614" y1="11.2785" x2="102.85" y2="14.0663" gradientUnits="userSpaceOnUse">
<stop stop-color="#08ECB3"/>
<stop offset="1" stop-color="#2EEE88"/>
</linearGradient>
</defs>
</svg>
